<mxfile host="app.diagrams.net" modified="2023-07-07T07:46:18.601Z" agent="Mozilla/5.0 (Windows NT 10.0; Win64; x64) AppleWebKit/537.36 (KHTML, like Gecko) Chrome/114.0.0.0 Safari/537.36 Edg/114.0.1823.58" etag="6KaZkNHmoELZQQdJAmDa" version="21.5.2" type="github">
  <diagram id="C5RBs43oDa-KdzZeNtuy" name="Page-1">
    <mxGraphModel dx="880" dy="484" grid="1" gridSize="10" guides="1" tooltips="1" connect="1" arrows="1" fold="1" page="1" pageScale="1" pageWidth="827" pageHeight="1169" math="0" shadow="0">
      <root>
        <mxCell id="WIyWlLk6GJQsqaUBKTNV-0" />
        <mxCell id="WIyWlLk6GJQsqaUBKTNV-1" parent="WIyWlLk6GJQsqaUBKTNV-0" />
        <mxCell id="bRwjGltjYPZfXv9cNhFT-3" style="edgeStyle=orthogonalEdgeStyle;rounded=0;orthogonalLoop=1;jettySize=auto;html=1;exitX=0.5;exitY=1;exitDx=0;exitDy=0;entryX=0.5;entryY=0;entryDx=0;entryDy=0;" parent="WIyWlLk6GJQsqaUBKTNV-1" source="WIyWlLk6GJQsqaUBKTNV-3" target="bRwjGltjYPZfXv9cNhFT-4" edge="1">
          <mxGeometry relative="1" as="geometry">
            <mxPoint x="405" y="80" as="targetPoint" />
          </mxGeometry>
        </mxCell>
        <mxCell id="WIyWlLk6GJQsqaUBKTNV-3" value="Mulai" style="rounded=1;whiteSpace=wrap;html=1;fontSize=12;glass=0;strokeWidth=1;shadow=0;arcSize=50;" parent="WIyWlLk6GJQsqaUBKTNV-1" vertex="1">
          <mxGeometry x="330" y="10" width="150" height="50" as="geometry" />
        </mxCell>
        <mxCell id="c6IGZri0r_4ceuFQyGzG-4" style="edgeStyle=orthogonalEdgeStyle;rounded=0;orthogonalLoop=1;jettySize=auto;html=1;exitX=0.5;exitY=1;exitDx=0;exitDy=0;entryX=0.5;entryY=0;entryDx=0;entryDy=0;" edge="1" parent="WIyWlLk6GJQsqaUBKTNV-1" source="bRwjGltjYPZfXv9cNhFT-4" target="c6IGZri0r_4ceuFQyGzG-0">
          <mxGeometry relative="1" as="geometry" />
        </mxCell>
        <mxCell id="bRwjGltjYPZfXv9cNhFT-4" value="Input&lt;br style=&quot;border-color: var(--border-color);&quot;&gt;angka yang lebih besar &lt;br&gt;dari&amp;nbsp; 1 (angka &amp;gt; 1)" style="shape=parallelogram;perimeter=parallelogramPerimeter;whiteSpace=wrap;html=1;fixedSize=1;" parent="WIyWlLk6GJQsqaUBKTNV-1" vertex="1">
          <mxGeometry x="325" y="90" width="160" height="60" as="geometry" />
        </mxCell>
        <mxCell id="bRwjGltjYPZfXv9cNhFT-12" value="&lt;b&gt;YA&lt;/b&gt;" style="text;html=1;strokeColor=none;fillColor=none;align=center;verticalAlign=middle;whiteSpace=wrap;rounded=0;" parent="WIyWlLk6GJQsqaUBKTNV-1" vertex="1">
          <mxGeometry x="520" y="465" width="60" height="30" as="geometry" />
        </mxCell>
        <mxCell id="c6IGZri0r_4ceuFQyGzG-23" style="edgeStyle=orthogonalEdgeStyle;rounded=0;orthogonalLoop=1;jettySize=auto;html=1;exitX=0.5;exitY=1;exitDx=0;exitDy=0;entryX=0.5;entryY=0;entryDx=0;entryDy=0;" edge="1" parent="WIyWlLk6GJQsqaUBKTNV-1" source="bRwjGltjYPZfXv9cNhFT-15" target="bRwjGltjYPZfXv9cNhFT-19">
          <mxGeometry relative="1" as="geometry" />
        </mxCell>
        <mxCell id="bRwjGltjYPZfXv9cNhFT-15" value="faktor (i) = 2" style="rounded=0;whiteSpace=wrap;html=1;" parent="WIyWlLk6GJQsqaUBKTNV-1" vertex="1">
          <mxGeometry x="345" y="280" width="120" height="60" as="geometry" />
        </mxCell>
        <mxCell id="bRwjGltjYPZfXv9cNhFT-17" value="i &amp;lt;= akar" style="rhombus;whiteSpace=wrap;html=1;" parent="WIyWlLk6GJQsqaUBKTNV-1" vertex="1">
          <mxGeometry x="650" y="420" width="120" height="110" as="geometry" />
        </mxCell>
        <mxCell id="c6IGZri0r_4ceuFQyGzG-20" style="edgeStyle=orthogonalEdgeStyle;rounded=0;orthogonalLoop=1;jettySize=auto;html=1;exitX=0.5;exitY=1;exitDx=0;exitDy=0;entryX=0.5;entryY=0;entryDx=0;entryDy=0;" edge="1" parent="WIyWlLk6GJQsqaUBKTNV-1" source="bRwjGltjYPZfXv9cNhFT-19" target="c6IGZri0r_4ceuFQyGzG-19">
          <mxGeometry relative="1" as="geometry" />
        </mxCell>
        <mxCell id="c6IGZri0r_4ceuFQyGzG-21" style="edgeStyle=orthogonalEdgeStyle;rounded=0;orthogonalLoop=1;jettySize=auto;html=1;exitX=0;exitY=0.5;exitDx=0;exitDy=0;entryX=1;entryY=0.5;entryDx=0;entryDy=0;" edge="1" parent="WIyWlLk6GJQsqaUBKTNV-1" source="bRwjGltjYPZfXv9cNhFT-19" target="c6IGZri0r_4ceuFQyGzG-3">
          <mxGeometry relative="1" as="geometry" />
        </mxCell>
        <mxCell id="bRwjGltjYPZfXv9cNhFT-19" value="angka % i&lt;br&gt;== 0" style="rhombus;whiteSpace=wrap;html=1;" parent="WIyWlLk6GJQsqaUBKTNV-1" vertex="1">
          <mxGeometry x="345" y="380" width="120" height="110" as="geometry" />
        </mxCell>
        <mxCell id="bRwjGltjYPZfXv9cNhFT-24" value="&lt;b&gt;TIDAK&lt;/b&gt;" style="text;html=1;strokeColor=none;fillColor=none;align=center;verticalAlign=middle;whiteSpace=wrap;rounded=0;" parent="WIyWlLk6GJQsqaUBKTNV-1" vertex="1">
          <mxGeometry x="300" y="435" width="60" height="30" as="geometry" />
        </mxCell>
        <mxCell id="bRwjGltjYPZfXv9cNhFT-26" value="Angka Bilangan Prima" style="shape=parallelogram;perimeter=parallelogramPerimeter;whiteSpace=wrap;html=1;fixedSize=1;" parent="WIyWlLk6GJQsqaUBKTNV-1" vertex="1">
          <mxGeometry x="380" y="810" width="160" height="60" as="geometry" />
        </mxCell>
        <mxCell id="c6IGZri0r_4ceuFQyGzG-5" style="edgeStyle=orthogonalEdgeStyle;rounded=0;orthogonalLoop=1;jettySize=auto;html=1;exitX=0.5;exitY=1;exitDx=0;exitDy=0;entryX=0.5;entryY=0;entryDx=0;entryDy=0;" edge="1" parent="WIyWlLk6GJQsqaUBKTNV-1" source="c6IGZri0r_4ceuFQyGzG-0" target="bRwjGltjYPZfXv9cNhFT-15">
          <mxGeometry relative="1" as="geometry" />
        </mxCell>
        <mxCell id="c6IGZri0r_4ceuFQyGzG-0" value="akar kuadrat dari angka (akar)" style="rounded=0;whiteSpace=wrap;html=1;" vertex="1" parent="WIyWlLk6GJQsqaUBKTNV-1">
          <mxGeometry x="345" y="180" width="120" height="60" as="geometry" />
        </mxCell>
        <mxCell id="c6IGZri0r_4ceuFQyGzG-3" value="i = i + 1" style="rounded=0;whiteSpace=wrap;html=1;" vertex="1" parent="WIyWlLk6GJQsqaUBKTNV-1">
          <mxGeometry x="150" y="405" width="120" height="60" as="geometry" />
        </mxCell>
        <mxCell id="c6IGZri0r_4ceuFQyGzG-16" value="i = i + 1" style="rounded=0;whiteSpace=wrap;html=1;" vertex="1" parent="WIyWlLk6GJQsqaUBKTNV-1">
          <mxGeometry x="660" y="310" width="120" height="60" as="geometry" />
        </mxCell>
        <mxCell id="c6IGZri0r_4ceuFQyGzG-19" value="Angka &lt;b&gt;Bukan &lt;/b&gt;&lt;br&gt;Bilangan Prima" style="shape=parallelogram;perimeter=parallelogramPerimeter;whiteSpace=wrap;html=1;fixedSize=1;" vertex="1" parent="WIyWlLk6GJQsqaUBKTNV-1">
          <mxGeometry x="325" y="540" width="160" height="60" as="geometry" />
        </mxCell>
        <mxCell id="c6IGZri0r_4ceuFQyGzG-22" value="&lt;b&gt;TIDAK&lt;/b&gt;" style="text;html=1;strokeColor=none;fillColor=none;align=center;verticalAlign=middle;whiteSpace=wrap;rounded=0;" vertex="1" parent="WIyWlLk6GJQsqaUBKTNV-1">
          <mxGeometry x="710" y="640" width="60" height="30" as="geometry" />
        </mxCell>
      </root>
    </mxGraphModel>
  </diagram>
</mxfile>
